<svg fill="none" viewBox="0 0 800 200" xmlns="http://www.w3.org/2000/svg">
  <foreignObject width="100%" height="100%">
    <div xmlns="http://www.w3.org/1999/xhtml">
      <style>
        .container {
          font-family: 'Segoe UI', Roboto, Helvetica, Arial, sans-serif;
          height: 200px;
          background: linear-gradient(135deg, #0f172a 0%, #1e293b 100%);
          display: flex;
          flex-direction: column;
          justify-content: center;
          align-items: center;
          color: white;
          text-align: center;
          border-radius: 10px;
          position: relative;
          overflow: hidden;
        }
        .name {
          font-size: 42px;
          font-weight: 800;
          margin-bottom: 10px;
          background: linear-gradient(to right, #60a5fa, #a78bfa);
          -webkit-background-clip: text;
          -webkit-text-fill-color: transparent;
          z-index: 10;
        }
        .title {
          font-size: 18px;
          font-weight: 400;
          letter-spacing: 2px;
          color: #94a3b8;
          text-transform: uppercase;
          z-index: 10;
        }
        .bg-illustration {
          position: absolute;
          top: 0;
          left: 0;
          width: 100%;
          height: 100%;
          opacity: 0.15;
          z-index: 1;
          pointer-events: none;
        }
      </style>
      <div class="container">
        <!-- Background Illustration: Distributed Systems & Infrastructure -->
        <svg class="bg-illustration" viewBox="0 0 800 200" xmlns="http://www.w3.org/2000/svg">
            <!-- Network connections -->
            <path d="M50 50 L150 120 L250 40 L350 160 L450 80 L550 140 L650 60 L750 130" stroke="#60a5fa" stroke-width="2" fill="none" stroke-dasharray="4 4" />
            <path d="M100 150 L200 70 L300 130 L400 50 L500 150 L600 80 L700 160" stroke="#a78bfa" stroke-width="2" fill="none" stroke-dasharray="4 4" />
            
            <!-- Cross connections between layers -->
            <line x1="150" y1="120" x2="200" y2="70" stroke="#60a5fa" stroke-width="1" opacity="0.6"/>
            <line x1="300" y1="130" x2="350" y2="160" stroke="#a78bfa" stroke-width="1" opacity="0.6"/>
            <line x1="450" y1="80" x2="500" y2="150" stroke="#60a5fa" stroke-width="1" opacity="0.6"/>
            <line x1="600" y1="80" x2="650" y2="60" stroke="#a78bfa" stroke-width="1" opacity="0.6"/>

            <!-- Server/Container Nodes (rectangles) -->
            <rect x="35" y="40" width="30" height="20" rx="3" stroke="#60a5fa" stroke-width="1.5" fill="#0f172a" />
            <rect x="235" y="30" width="30" height="20" rx="3" stroke="#60a5fa" stroke-width="1.5" fill="#0f172a" />
            <rect x="435" y="70" width="30" height="20" rx="3" stroke="#60a5fa" stroke-width="1.5" fill="#0f172a" />
            <rect x="635" y="50" width="30" height="20" rx="3" stroke="#60a5fa" stroke-width="1.5" fill="#0f172a" />
            
            <rect x="85" y="140" width="30" height="20" rx="3" stroke="#a78bfa" stroke-width="1.5" fill="#0f172a" />
            <rect x="285" y="120" width="30" height="20" rx="3" stroke="#a78bfa" stroke-width="1.5" fill="#0f172a" />
            <rect x="485" y="140" width="30" height="20" rx="3" stroke="#a78bfa" stroke-width="1.5" fill="#0f172a" />
            <rect x="685" y="150" width="30" height="20" rx="3" stroke="#a78bfa" stroke-width="1.5" fill="#0f172a" />

            <!-- Data/Service Nodes (circles) -->
            <circle cx="150" cy="120" r="7" fill="#a78bfa" />
            <circle cx="350" cy="160" r="6" fill="#a78bfa" />
            <circle cx="550" cy="140" r="7" fill="#a78bfa" />
            <circle cx="750" cy="130" r="5" fill="#a78bfa" />
            
            <circle cx="200" cy="70" r="6" fill="#60a5fa" />
            <circle cx="400" cy="50" r="5" fill="#60a5fa" />
            <circle cx="600" cy="80" r="6" fill="#a78bfa" />
            
            <!-- Abstract Cloud curves -->
            <path d="M 60 100 Q 80 80 100 100 Q 120 90 130 110" stroke="#60a5fa" stroke-width="1.5" fill="none" opacity="0.4" />
            <path d="M 650 120 Q 670 100 690 120 Q 710 110 720 130" stroke="#a78bfa" stroke-width="1.5" fill="none" opacity="0.4" />
        </svg>

        <div class="name">Hussain Abbas</div>
        <div class="title">Director of Engineering • DevEx • Platform • AI</div>
      </div>
    </div>
  </foreignObject>
</svg>
